<svg width="360" height="78" viewBox="0 0 360 78" fill="none" xmlns="http://www.w3.org/2000/svg">
<path d="M9.18359 38.2458C9.18359 38.2458 16.2709 13.4466 20.9957 13.4466C25.7205 13.4466 28.083 36.9053 32.8078 36.9053C37.5326 36.9053 39.8951 20.1491 44.6199 20.1491C49.3447 20.1491 51.7072 46.959 56.432 46.959C61.1569 46.959 63.5193 14.7871 68.2441 14.7871C72.969 14.7871 75.3314 29.3985 80.0562 40.9267C84.7811 52.455 87.1435 72.4284 91.8683 72.4284C96.5932 72.4284 98.9556 34.8945 103.68 34.8945C108.405 34.8945 110.768 65.7259 115.493 65.7259C120.217 65.7259 122.58 8.75488 127.305 8.75488C132.029 8.75488 134.392 52.9912 139.117 55.0019C143.842 57.0127 146.204 55.8062 150.929 57.0127C155.654 58.2191 158.016 61.0342 162.741 61.0342C167.466 61.0342 169.828 61.0342 174.553 55.6722C179.278 50.3102 181.64 30.873 186.365 30.873C191.09 30.873 193.452 42.9375 198.177 42.9375C202.902 42.9375 205.265 24.1706 209.989 24.1706C214.714 24.1706 217.077 62.3746 221.801 62.3746C226.526 62.3746 228.889 16.1276 233.614 16.1276C238.338 16.1276 240.701 51.6507 245.426 51.6507C250.151 51.6507 252.513 44.6801 257.238 36.9053C261.963 29.1304 264.325 12.7764 269.05 12.7764C273.775 12.7764 276.137 16.2617 280.862 27.5218C285.587 38.782 287.949 69.0771 292.674 69.0771C297.399 69.0771 299.761 63.0449 304.486 63.0449C309.211 63.0449 311.573 65.7259 316.298 65.7259C321.023 65.7259 323.386 48.4335 328.11 40.9267C332.835 33.42 335.198 28.192 339.923 28.192C344.647 28.192 351.735 34.8945 351.735 34.8945" stroke="#602BF8" stroke-width="2"/>
<rect x="0.5" y="0.5" width="359" height="77" stroke="black"/>
<line x1="115.377" y1="5.32511e-08" x2="115.377" y2="78" stroke="#79EE66" stroke-width="3"/>
<rect y="56.5103" width="360" height="21.4898" fill="#F11D1D" fill-opacity="0.5"/>
<rect width="55.102" height="78" fill="#D9D9D9" fill-opacity="0.8"/>
<rect x="55.1021" width="60.6122" height="78" fill="#D9D9D9" fill-opacity="0.5"/>
<rect x="304.898" width="55.1021" height="78" fill="#D9D9D9" fill-opacity="0.8"/>
</svg>
