<svg width="32" height="32" viewBox="0 0 32 32" fill="none" xmlns="http://www.w3.org/2000/svg">
<mask id="mask0_377_525" style="mask-type:alpha" maskUnits="userSpaceOnUse" x="0" y="0" width="32" height="32">
<rect width="32" height="32" fill="#D9D9D9"/>
</mask>
<g mask="url(#mask0_377_525)">
<path d="M15.9998 22.6665C16.3776 22.6665 16.6943 22.5387 16.9498 22.2832C17.2054 22.0276 17.3332 21.7109 17.3332 21.3332V17.3332H21.3665C21.7443 17.3332 22.0554 17.2054 22.2998 16.9498C22.5443 16.6943 22.6665 16.3776 22.6665 15.9998C22.6665 15.6221 22.5387 15.3054 22.2832 15.0498C22.0276 14.7943 21.7109 14.6665 21.3332 14.6665H17.3332V10.6332C17.3332 10.2554 17.2054 9.94428 16.9498 9.69984C16.6943 9.45539 16.3776 9.33317 15.9998 9.33317C15.6221 9.33317 15.3054 9.46095 15.0498 9.7165C14.7943 9.97206 14.6665 10.2887 14.6665 10.6665V14.6665H10.6332C10.2554 14.6665 9.94428 14.7943 9.69984 15.0498C9.45539 15.3054 9.33317 15.6221 9.33317 15.9998C9.33317 16.3776 9.46095 16.6943 9.7165 16.9498C9.97206 17.2054 10.2887 17.3332 10.6665 17.3332H14.6665V21.3665C14.6665 21.7443 14.7943 22.0554 15.0498 22.2998C15.3054 22.5443 15.6221 22.6665 15.9998 22.6665ZM15.9998 29.3332C14.1554 29.3332 12.4221 28.9832 10.7998 28.2832C9.17761 27.5832 7.7665 26.6332 6.5665 25.4332C5.3665 24.2332 4.4165 22.8221 3.7165 21.1998C3.0165 19.5776 2.6665 17.8443 2.6665 15.9998C2.6665 14.1554 3.0165 12.4221 3.7165 10.7998C4.4165 9.17761 5.3665 7.7665 6.5665 6.5665C7.7665 5.3665 9.17761 4.4165 10.7998 3.7165C12.4221 3.0165 14.1554 2.6665 15.9998 2.6665C17.8443 2.6665 19.5776 3.0165 21.1998 3.7165C22.8221 4.4165 24.2332 5.3665 25.4332 6.5665C26.6332 7.7665 27.5832 9.17761 28.2832 10.7998C28.9832 12.4221 29.3332 14.1554 29.3332 15.9998C29.3332 17.8443 28.9832 19.5776 28.2832 21.1998C27.5832 22.8221 26.6332 24.2332 25.4332 25.4332C24.2332 26.6332 22.8221 27.5832 21.1998 28.2832C19.5776 28.9832 17.8443 29.3332 15.9998 29.3332Z" fill="#2FA6FF"/>
</g>
</svg>
